<svg xmlns="http://www.w3.org/2000/svg" viewBox="0 0 800 800"><path d="M640 460v80h-80v-80h80m10-10H550v100h100V450zm50-150h100v200H700z" fill="#cfd8dc"/><path fill="#34a853" d="M499.81 500v200H800V500H499.81z"/><path d="M790 610v80h-80v-80h80m10-10H700v100h100V600z" fill="#cfd8dc"/><path d="M689.91 610v80h-80v-80h80m10-10h-100v100h100V600zM790 510v80h-80v-80h80m10-10H700v100h100V500z" fill="#fff"/><path d="M.19 100h200v300.21H.19z" fill="#fbbd00"/><path d="M200.19 449.79V700h100V449.79a50 50 0 00-50-50 50 50 0 00-50 50z" fill="#cfd8dc"/><path d="M750 250a50 50 0 00-50 50h100a50 50 0 00-50-50z" fill="#fbbd00"/><path d="M.19 400v200.76A99.24 99.24 0 0099.43 700h100.76V400zM700 199.24A99.24 99.24 0 00600.76 100H400v200h99.81v100H700zM400 400v-99.81h-99.81v199.62h199.62V400H400z" fill="#eceff1"/><path d="M350.08 449.89l-49.89 49.9h99.79l-49.9-49.9z" fill="#cfd8dc"/><path stroke="#eceff1" fill="none" stroke-miterlimit="10" stroke-width="10" d="M350.08 499.79V700"/><path d="M.19 200l100-100 100 100H.19z" fill="#eceff1"/><path d="M100.19 200v200" fill="none" stroke-miterlimit="10" stroke-width="10" stroke="#fff"/><path d="M.19 500l100-100 100 100H.19z" fill="#cfd8dc"/><path d="M100.19 500v200" fill="none" stroke-miterlimit="10" stroke-width="10" stroke="#fff"/><circle cx="250.19" cy="362.13" r="38.08" fill="#3385f8"/><circle cx="350.08" cy="262.13" r="38.08" fill="#fbbd00"/><circle cx="450.09" cy="262.13" r="38.08" fill="#3385f8"/><circle cx="750" cy="211.82" r="38.08" fill="#eceff1"/><path d="M499.82 300v7.28l174.57-174.59q-3.36-3.7-7.07-7.07L493 300z" fill="#cfd8dc"/></svg>